<mxfile host="Electron" agent="Mozilla/5.0 (Windows NT 10.0; Win64; x64) AppleWebKit/537.36 (KHTML, like Gecko) draw.io/27.0.5 Chrome/134.0.6998.205 Electron/35.3.0 Safari/537.36" version="27.0.5">
  <diagram name="Page-1" id="HloazGf1QLUk0cmV49_5">
    <mxGraphModel dx="872" dy="529" grid="1" gridSize="10" guides="1" tooltips="1" connect="1" arrows="1" fold="1" page="1" pageScale="1" pageWidth="850" pageHeight="1100" math="0" shadow="0">
      <root>
        <mxCell id="0" />
        <mxCell id="1" parent="0" />
        <mxCell id="N18InV-qUUhM4nJrEDHv-1" value="&lt;font style=&quot;font-size: 14px;&quot;&gt;&amp;nbsp; &amp;nbsp; &amp;nbsp;User Interface&lt;/font&gt;" style="shape=component;whiteSpace=wrap;html=1;" vertex="1" parent="1">
          <mxGeometry x="100" y="50" width="150" height="100" as="geometry" />
        </mxCell>
        <mxCell id="N18InV-qUUhM4nJrEDHv-2" value="&lt;font style=&quot;font-size: 14px;&quot;&gt;&amp;nbsp; &amp;nbsp; &amp;nbsp;Authentication&lt;/font&gt;" style="shape=component;whiteSpace=wrap;html=1;" vertex="1" parent="1">
          <mxGeometry x="100" y="270" width="150" height="100" as="geometry" />
        </mxCell>
        <mxCell id="N18InV-qUUhM4nJrEDHv-3" value="&lt;font style=&quot;font-size: 14px;&quot;&gt;&amp;nbsp; &amp;nbsp; Share&lt;/font&gt;&lt;div&gt;&lt;font style=&quot;font-size: 14px;&quot;&gt;&amp;nbsp; &amp;nbsp; &amp;nbsp; Management&lt;/font&gt;&lt;/div&gt;" style="shape=component;whiteSpace=wrap;html=1;align=center;" vertex="1" parent="1">
          <mxGeometry x="370" y="110" width="150" height="100" as="geometry" />
        </mxCell>
        <mxCell id="N18InV-qUUhM4nJrEDHv-4" value="&lt;font style=&quot;font-size: 14px;&quot;&gt;&amp;nbsp; &amp;nbsp; Data Storage&lt;/font&gt;" style="shape=component;whiteSpace=wrap;html=1;" vertex="1" parent="1">
          <mxGeometry x="650" width="150" height="100" as="geometry" />
        </mxCell>
        <mxCell id="N18InV-qUUhM4nJrEDHv-5" value="&lt;font style=&quot;font-size: 14px;&quot;&gt;&amp;nbsp; &amp;nbsp; External Services&lt;/font&gt;" style="shape=component;whiteSpace=wrap;html=1;" vertex="1" parent="1">
          <mxGeometry x="650" y="230" width="150" height="100" as="geometry" />
        </mxCell>
        <mxCell id="N18InV-qUUhM4nJrEDHv-6" value="" style="endArrow=classic;html=1;rounded=0;" edge="1" parent="1" source="N18InV-qUUhM4nJrEDHv-1" target="N18InV-qUUhM4nJrEDHv-2">
          <mxGeometry relative="1" as="geometry">
            <mxPoint x="175" y="150" as="sourcePoint" />
            <mxPoint x="175" y="200" as="targetPoint" />
          </mxGeometry>
        </mxCell>
        <mxCell id="N18InV-qUUhM4nJrEDHv-7" value="&lt;font style=&quot;font-size: 14px;&quot;&gt;Login / Register&lt;/font&gt;" style="edgeLabel;html=1;align=center;verticalAlign=middle;resizable=0;points=[];" vertex="1" connectable="0" parent="N18InV-qUUhM4nJrEDHv-6">
          <mxGeometry x="-0.5" relative="1" as="geometry">
            <mxPoint x="4" y="20" as="offset" />
          </mxGeometry>
        </mxCell>
        <mxCell id="N18InV-qUUhM4nJrEDHv-8" value="" style="endArrow=classic;html=1;rounded=0;" edge="1" parent="1" source="N18InV-qUUhM4nJrEDHv-1" target="N18InV-qUUhM4nJrEDHv-3">
          <mxGeometry relative="1" as="geometry">
            <mxPoint x="250" y="150" as="sourcePoint" />
            <mxPoint x="300" y="175" as="targetPoint" />
          </mxGeometry>
        </mxCell>
        <mxCell id="N18InV-qUUhM4nJrEDHv-9" value="&lt;font style=&quot;font-size: 14px;&quot;&gt;Initiate&lt;/font&gt;&lt;div&gt;&lt;font style=&quot;font-size: 14px;&quot;&gt;Purchase&lt;/font&gt;&lt;/div&gt;" style="edgeLabel;html=1;align=center;verticalAlign=middle;resizable=0;points=[];" vertex="1" connectable="0" parent="N18InV-qUUhM4nJrEDHv-8">
          <mxGeometry x="-0.5" relative="1" as="geometry">
            <mxPoint x="20" y="7" as="offset" />
          </mxGeometry>
        </mxCell>
        <mxCell id="N18InV-qUUhM4nJrEDHv-10" value="" style="endArrow=classic;html=1;rounded=0;" edge="1" parent="1" source="N18InV-qUUhM4nJrEDHv-3" target="N18InV-qUUhM4nJrEDHv-4">
          <mxGeometry relative="1" as="geometry">
            <mxPoint x="450" y="175" as="sourcePoint" />
            <mxPoint x="500" y="100" as="targetPoint" />
          </mxGeometry>
        </mxCell>
        <mxCell id="N18InV-qUUhM4nJrEDHv-11" value="&lt;font style=&quot;font-size: 14px;&quot;&gt;CRUD&lt;/font&gt;&lt;div&gt;&lt;font style=&quot;font-size: 14px;&quot;&gt;Operations&lt;/font&gt;&lt;/div&gt;" style="edgeLabel;html=1;align=center;verticalAlign=middle;resizable=0;points=[];" vertex="1" connectable="0" parent="N18InV-qUUhM4nJrEDHv-10">
          <mxGeometry x="-0.5" relative="1" as="geometry">
            <mxPoint x="31" y="-12" as="offset" />
          </mxGeometry>
        </mxCell>
        <mxCell id="N18InV-qUUhM4nJrEDHv-12" value="" style="endArrow=classic;html=1;rounded=0;" edge="1" parent="1" source="N18InV-qUUhM4nJrEDHv-3" target="N18InV-qUUhM4nJrEDHv-5">
          <mxGeometry relative="1" as="geometry">
            <mxPoint x="450" y="175" as="sourcePoint" />
            <mxPoint x="500" y="250" as="targetPoint" />
          </mxGeometry>
        </mxCell>
        <mxCell id="N18InV-qUUhM4nJrEDHv-13" value="&lt;font style=&quot;font-size: 14px;&quot;&gt;Price&lt;/font&gt;&lt;div&gt;&lt;font style=&quot;font-size: 14px;&quot;&gt;Updates&lt;/font&gt;&lt;/div&gt;" style="edgeLabel;html=1;align=center;verticalAlign=middle;resizable=0;points=[];" vertex="1" connectable="0" parent="N18InV-qUUhM4nJrEDHv-12">
          <mxGeometry x="-0.5" relative="1" as="geometry">
            <mxPoint x="28" y="9" as="offset" />
          </mxGeometry>
        </mxCell>
      </root>
    </mxGraphModel>
  </diagram>
</mxfile>
